<?xml version="1.0" encoding="UTF-8" standalone="no"?>
<!-- Created with Inkscape (http://www.inkscape.org/) -->
<svg
   xmlns:svg="http://www.w3.org/2000/svg"
   xmlns="http://www.w3.org/2000/svg"
   version="1.0"
   width="514.28009"
   height="514.28009"
   id="svg2">
  <defs
     id="defs4" />
  <rect
     width="526.60748"
     height="526.60748"
     x="-5.4852214"
     y="-6.8421702"
     style="fill:white;fill-rule:evenodd;stroke:black;stroke-width:0.88505602px;stroke-linecap:butt;stroke-linejoin:miter;stroke-opacity:1"
     id="rect2059" />
  <g
     transform="translate(-5.130767e-8,-538.0821)"
     id="layer1">
    <g
       transform="translate(-36.79995,214.6401)"
       id="g3126">
      <g
         style="fill:none;stroke:black;stroke-width:2.0000999"
         id="g2749">
        <path
           d="M 293.976,836.722 C 435.024,836.722 550.08,721.666 550.08,580.618 C 550.08,439.498 435.024,324.442 293.976,324.442 C 152.856,324.442 37.8,439.498 37.8,580.618 C 37.8,721.666 152.856,836.722 293.976,836.722 z "
           id="path2751" />
      </g>
      <g
         style="fill:none;stroke:black;stroke-width:2.0000999"
         id="g2753">
        <path
           d="M 293.976,768.61 C 397.512,768.61 481.968,684.154 481.968,580.618 C 481.968,477.01 397.512,392.554 293.976,392.554 C 190.368,392.554 105.912,477.01 105.912,580.618 C 105.912,684.154 190.368,768.61 293.976,768.61 z "
           id="path2755" />
      </g>
      <g
         style="fill:none;stroke:black;stroke-width:2.0000999"
         id="g2757">
        <path
           d="M 183.96,432.586 L 293.688,766.594 L 396.144,426.106 L 118.152,637.354 L 471.384,634.33 L 183.96,432.586 z "
           id="path2759" />
      </g>
      <g
         style="fill:none;stroke:black;stroke-width:2.0000999"
         id="g2821">
        <path
           d="M 282.672,557.578 C 287.568,563.554 290.52,571.69 291.6,581.986 C 293.256,571.978 296.64,563.698 302.544,558.01"
           id="path2823" />
      </g>
      <g
         style="fill:none;stroke:black;stroke-width:2.0000999"
         id="g2825">
        <path
           d="M 320.832,556.786 C 324.216,575.722 310.752,578.242 299.448,598.69"
           id="path2827" />
      </g>
      <g
         style="fill:none;stroke:black;stroke-width:2.0000999"
         id="g2829">
        <path
           d="M 282.888,599.914 C 280.584,583.354 251.928,577.018 260.28,559.81"
           id="path2831" />
      </g>
      <g
         style="fill:none;stroke:black;stroke-width:2.0000999"
         id="g2833">
        <path
           d="M 248.976,577.666 C 247.32,602.002 279.144,585.73 272.304,609.274"
           id="path2835" />
      </g>
      <g
         style="fill:none;stroke:black;stroke-width:2.0000999"
         id="g2837">
        <path
           d="M 280.152,621.874 C 276.984,632.026 276.624,642.25 281.016,652.546"
           id="path2839" />
      </g>
      <g
         style="fill:none;stroke:black;stroke-width:2.0000999"
         id="g2841">
        <path
           d="M 300.168,621.01 C 303.48,632.026 303.048,642.538 299.448,652.546"
           id="path2843" />
      </g>
      <g
         style="fill:none;stroke:black;stroke-width:2.0000999"
         id="g2845">
        <path
           d="M 304.488,617.266 C 307.872,617.41 309.168,619.066 310.176,622.738"
           id="path2847" />
      </g>
      <g
         style="fill:none;stroke:black;stroke-width:2.0000999"
         id="g2849">
        <path
           d="M 266.616,619.642 C 267.12,617.122 269.424,615.754 273.384,615.538"
           id="path2851" />
      </g>
      <g
         style="fill:none;stroke:black;stroke-width:2.0000999"
         id="g2853">
        <path
           d="M 401.616,611.002 C 395.28,603.874 385.272,602.434 374.328,602.578 C 360,603.082 349.128,596.242 340.128,585.586 C 341.28,604.882 333.792,619.642 322.344,632.314 C 320.256,635.626 320.328,641.314 318.096,649.306 C 315,653.41 312.12,657.802 310.536,664.21 C 311.328,670.546 310.32,678.25 308.088,686.818 C 305.568,688.978 302.328,690.634 297.576,691.282 C 291.816,691.93 283.536,691.138 275.832,689.122 C 274.32,681.706 274.176,674.29 270.36,667.954 C 266.544,662.554 263.952,656.794 263.232,650.53 C 262.728,643.834 262.152,635.698 258.912,630.586 C 247.536,617.05 239.616,604.594 235.152,590.194 C 235.08,607.834 181.584,609.922 173.232,611.65"
           id="path2855" />
      </g>
      <g
         style="fill:none;stroke:black;stroke-width:2.0000999"
         id="g2857">
        <path
           d="M 285.336,721.306 C 287.424,708.994 276.12,698.482 275.832,689.194 C 289.44,693.586 298.8,694.162 307.872,687.394 C 306.072,695.818 297.072,709.066 299.304,720.586"
           id="path2859" />
      </g>
      <g
         style="fill:none;stroke:black;stroke-width:2.0000999"
         id="g2861">
        <path
           d="M 201.024,460.882 C 239.976,494.074 268.344,522.154 265.968,545.77"
           id="path2863" />
      </g>
      <g
         style="fill:none;stroke:black;stroke-width:2.0000999"
         id="g2865">
        <path
           d="M 381.816,456.85 C 342.864,490.114 314.496,518.122 316.872,541.738"
           id="path2867" />
      </g>
      <g
         style="fill:none;stroke:black;stroke-width:2.0000999"
         id="g2869">
        <path
           d="M 238.824,606.466 C 238.968,606.466 239.544,605.674 239.688,605.674 C 214.128,631.018 179.208,635.122 140.4,627.202 C 161.928,619.786 174.24,595.45 182.592,594.298 C 218.16,581.554 244.224,566.002 245.376,554.122 C 250.92,512.794 191.952,474.922 187.056,436.762 C 194.76,443.818 202.464,450.874 210.168,457.93 C 210.528,460.306 213.624,462.682 218.448,462.61 C 220.896,461.602 222.768,463.618 223.992,466.714 C 228.168,467.578 229.176,470.098 230.76,472.258 C 234.864,473.266 236.88,475.858 239.256,478.162 C 239.616,480.898 241.776,482.266 244.224,483.418 C 248.112,483.994 249.84,485.29 251.28,486.658 C 251.496,489.898 254.52,491.77 258.048,493.426 C 262.296,494.938 262.224,497.458 263.016,499.834 C 264.096,502.786 265.752,504.082 267.696,504.586 C 271.008,505.306 272.16,507.898 272.952,510.706 C 273.744,512.362 274.68,513.73 277.128,513.37 C 281.52,515.674 280.368,518.05 280.944,520.426 C 280.584,528.634 282.888,529.426 285.048,530.65 C 288.648,531.298 287.136,537.058 286.2,545.05 C 285.696,548.506 289.296,546.778 295.344,543.754 C 298.8,542.89 296.928,533.026 295.56,526.546 C 296.28,523.522 298.224,520.858 301.392,518.626 C 304.776,515.386 305.712,512.866 306.648,510.418 C 307.008,506.746 309.096,505.378 311.616,504.226 C 315.648,502.786 314.64,497.89 315.432,497.242 C 318.384,494.146 320.688,493.138 322.776,492.562 C 326.088,491.77 327.24,489.61 328.104,487.234 C 329.256,484.642 331.416,482.914 334.224,481.978 C 339.048,480.178 339.552,477.37 341.28,475.498 C 345.888,470.602 348.336,470.602 351.216,469.666 C 352.872,468.802 354.24,467.722 354.168,465.274 C 353.592,461.53 358.416,461.098 362.088,459.946 C 365.616,458.722 368.856,456.994 371.52,454.114 C 371.808,452.458 372.96,451.666 374.112,450.874 C 378.432,448.498 379.512,446.194 381.168,443.818 C 382.608,441.442 384.768,440.506 387.072,439.714 C 389.52,438.418 390.6,437.194 391.464,435.898 C 397.728,461.962 324.504,513.37 336.6,556.498 C 341.208,569.746 358.92,572.05 384.984,583.786 C 422.568,606.25 411.912,617.482 438.552,625.33 C 395.424,629.218 359.28,628.714 340.92,607.33"
           id="path2871" />
      </g>
      <g
         style="fill:none;stroke:black;stroke-width:2.0000999"
         id="g2873">
        <path
           d="M 223.92,466.858 C 226.008,469.378 225.792,473.05 223.92,476.866"
           id="path2875" />
      </g>
      <g
         style="fill:none;stroke:black;stroke-width:2.0000999"
         id="g2877">
        <path
           d="M 230.472,472.042 C 234.072,475.858 235.08,479.674 233.424,483.49"
           id="path2879" />
      </g>
      <g
         style="fill:none;stroke:black;stroke-width:2.0000999"
         id="g2881">
        <path
           d="M 242.784,482.626 C 244.512,485.65 245.088,488.674 244.512,491.626"
           id="path2883" />
      </g>
      <g
         style="fill:none;stroke:black;stroke-width:2.0000999"
         id="g2885">
        <path
           d="M 254.376,491.554 C 254.952,495.874 254.736,499.618 253.656,502.642"
           id="path2887" />
      </g>
      <g
         style="fill:none;stroke:black;stroke-width:2.0000999"
         id="g2889">
        <path
           d="M 264.24,502.282 C 265.536,506.098 265.248,509.194 263.88,511.786"
           id="path2891" />
      </g>
      <g
         style="fill:none;stroke:black;stroke-width:2.0000999"
         id="g2893">
        <path
           d="M 272.88,510.13 C 273.456,514.738 272.88,519.778 271.152,525.322"
           id="path2895" />
      </g>
      <g
         style="fill:none;stroke:black;stroke-width:2.0000999"
         id="g2897">
        <path
           d="M 282.168,528.922 C 281.376,532.954 279.432,536.05 276.336,538.138"
           id="path2899" />
      </g>
      <g
         style="fill:none;stroke:black;stroke-width:2.0000999"
         id="g2901">
        <path
           d="M 371.736,453.898 C 372.6,455.554 372.816,458.074 371.448,461.242"
           id="path2903" />
      </g>
      <g
         style="fill:none;stroke:black;stroke-width:2.0000999"
         id="g2905">
        <path
           d="M 360.864,461.098 C 361.224,464.698 360.432,468.154 358.2,471.322"
           id="path2907" />
      </g>
      <g
         style="fill:none;stroke:black;stroke-width:2.0000999"
         id="g2909">
        <path
           d="M 346.536,471.898 C 348.552,473.554 348.984,478.162 346.392,483.994"
           id="path2911" />
      </g>
      <g
         style="fill:none;stroke:black;stroke-width:2.0000999"
         id="g2913">
        <path
           d="M 334.152,482.482 C 335.88,484.642 335.952,489.106 334.008,493.858"
           id="path2915" />
      </g>
      <g
         style="fill:none;stroke:black;stroke-width:2.0000999"
         id="g2917">
        <path
           d="M 321.624,493.21 C 323.64,495.946 324.216,502.138 321.84,508.042"
           id="path2919" />
      </g>
      <g
         style="fill:none;stroke:black;stroke-width:2.0000999"
         id="g2921">
        <path
           d="M 311.976,504.082 C 313.92,506.53 314.928,512.578 313.056,518.41"
           id="path2923" />
      </g>
      <g
         style="fill:none;stroke:black;stroke-width:2.0000999"
         id="g2925">
        <path
           d="M 299.808,520.282 C 301.896,521.29 306.144,526.906 307.656,532.594"
           id="path2927" />
      </g>
      <g
         style="fill:none;stroke:black;stroke-width:2.0000999"
         id="g2929">
        <path
           d="M 295.848,543.322 C 295.992,538.426 296.208,536.194 293.184,529.858"
           id="path2931" />
      </g>
      <g
         style="fill:none;stroke:black;stroke-width:2.0000999"
         id="g2933">
        <path
           d="M 289.44,546.922 C 289.656,541.954 289.656,544.186 289.44,539.29"
           id="path2935" />
      </g>
      <g
         style="fill:none;stroke:black;stroke-width:2.0000999"
         id="g2937">
        <path
           d="M 291.744,545.554 C 291.312,541.594 296.784,543.178 291.888,534.682"
           id="path2939" />
      </g>
      <g
         style="fill:black;stroke:black;stroke-width:0.21600001"
         id="g2941">
        <path
           d="M 265.464,604.09 C 266.544,604.09 267.48,603.01 267.48,601.57 C 267.48,600.202 266.544,599.122 265.464,599.122 C 264.456,599.122 263.52,600.202 263.52,601.57 C 263.52,603.01 264.456,604.09 265.464,604.09 z "
           id="path2943" />
      </g>
      <g
         style="fill:none;stroke:black;stroke-width:2.0000999"
         id="g2945">
        <path
           d="M 249.048,595.378 C 253.584,598.33 253.296,605.026 258.336,610.066 C 264.312,613.81 275.256,610.066 271.512,608.842 C 256.896,607.618 254.808,596.674 261.288,593.218"
           id="path2947" />
      </g>
      <g
         style="fill:none;stroke:black;stroke-width:2.0000999"
         id="g2949">
        <path
           d="M 332.136,595.306 C 327.6,598.186 327.816,604.882 322.848,609.922 C 316.872,613.738 306.144,609.706 309.888,608.482 C 324.504,607.258 325.368,595.306 318.888,591.85"
           id="path2951" />
      </g>
      <g
         style="fill:none;stroke:black;stroke-width:2.0000999"
         id="g2953">
        <path
           d="M 328.968,575.434 C 330.768,599.842 292.824,589.114 308.808,608.77"
           id="path2955" />
      </g>
      <g
         style="fill:black"
         id="g2957">
        <path
           d="M 307.224,653.122 C 306.144,657.802 296.208,669.322 296.136,673.498 C 295.488,677.314 295.92,679.834 299.592,680.194 C 302.76,680.482 304.272,679.546 303.48,676.162 C 302.976,674.506 302.976,673.21 301.824,671.626 C 301.104,669.754 301.032,667.306 305.28,661.906 C 308.16,658.306 309.024,650.17 307.224,653.122 z "
           id="path2959" />
      </g>
      <g
         style="fill:black"
         id="g2961">
        <path
           d="M 275.256,653.554 C 276.336,658.234 286.344,669.754 286.416,673.93 C 287.064,677.746 286.632,680.266 282.888,680.626 C 279.72,680.914 278.208,679.978 279,676.594 C 279.504,675.01 279.504,673.642 280.656,672.058 C 281.376,670.186 281.448,667.738 277.2,662.338 C 274.32,658.738 273.456,650.602 275.256,653.554 z "
           id="path2963" />
      </g>
      <g
         style="fill:none;stroke:black;stroke-width:1.00010002"
         id="g2965">
        <path
           d="M 150.12,628.138 C 153.648,627.202 156.384,625.114 156.744,623.602"
           id="path2967" />
      </g>
      <g
         style="fill:none;stroke:black;stroke-width:1.00010002"
         id="g2969">
        <path
           d="M 160.848,629.434 C 164.088,627.922 167.616,624.682 168.264,622.522"
           id="path2971" />
      </g>
      <g
         style="fill:none;stroke:black;stroke-width:1.00010002"
         id="g2973">
        <path
           d="M 169.992,630.298 C 172.008,629.002 174.672,625.762 175.176,623.242"
           id="path2975" />
      </g>
      <g
         style="fill:none;stroke:black;stroke-width:1.00010002"
         id="g2977">
        <path
           d="M 177.192,630.226 C 179.928,628.714 183.096,625.042 183.96,622.306"
           id="path2979" />
      </g>
      <g
         style="fill:none;stroke:black;stroke-width:1.00010002"
         id="g2981">
        <path
           d="M 190.368,629.218 C 191.088,627.49 191.808,624.61 191.304,622.882"
           id="path2983" />
      </g>
      <g
         style="fill:none;stroke:black;stroke-width:1.00010002"
         id="g2985">
        <path
           d="M 195.552,628.282 C 196.56,626.266 197.712,622.594 197.136,621.226"
           id="path2987" />
      </g>
      <g
         style="fill:none;stroke:black;stroke-width:1.00010002"
         id="g2989">
        <path
           d="M 202.536,626.914 C 204.048,624.538 205.2,620.146 204.48,618.346"
           id="path2991" />
      </g>
      <g
         style="fill:none;stroke:black;stroke-width:1.00010002"
         id="g2993">
        <path
           d="M 208.584,624.898 C 210.168,622.954 210.816,618.706 209.88,616.69"
           id="path2995" />
      </g>
      <g
         style="fill:none;stroke:black;stroke-width:1.00010002"
         id="g2997">
        <path
           d="M 216,621.874 C 217.368,619.642 217.728,615.466 216.864,613.882"
           id="path2999" />
      </g>
      <g
         style="fill:none;stroke:black;stroke-width:1.00010002"
         id="g3001">
        <path
           d="M 220.464,619.642 C 221.976,617.986 222.84,614.602 222.768,612.874"
           id="path3003" />
      </g>
      <g
         style="fill:none;stroke:black;stroke-width:1.00010002"
         id="g3005">
        <path
           d="M 225.792,616.546 C 227.304,615.322 227.664,612.586 227.88,610.786"
           id="path3007" />
      </g>
      <g
         style="fill:none;stroke:black;stroke-width:1.00010002"
         id="g3009">
        <path
           d="M 233.064,610.858 C 234.576,609.49 234.36,607.114 234.864,604.666"
           id="path3011" />
      </g>
      <g
         style="fill:none;stroke:black;stroke-width:1.00010002"
         id="g3013">
        <path
           d="M 428.904,625.618 C 425.304,624.754 422.64,622.666 422.208,621.082"
           id="path3015" />
      </g>
      <g
         style="fill:none;stroke:black;stroke-width:1.00010002"
         id="g3017">
        <path
           d="M 419.328,626.554 C 416.16,624.97 412.632,621.802 411.912,619.642"
           id="path3019" />
      </g>
      <g
         style="fill:none;stroke:black;stroke-width:1.00010002"
         id="g3021">
        <path
           d="M 410.112,627.058 C 408.024,625.834 405.432,622.594 404.928,620.074"
           id="path3023" />
      </g>
      <g
         style="fill:none;stroke:black;stroke-width:1.00010002"
         id="g3025">
        <path
           d="M 403.056,627.058 C 400.32,625.546 397.08,621.874 396.288,619.138"
           id="path3027" />
      </g>
      <g
         style="fill:none;stroke:black;stroke-width:1.00010002"
         id="g3029">
        <path
           d="M 392.76,626.698 C 392.04,624.97 391.32,622.09 391.824,620.362"
           id="path3031" />
      </g>
      <g
         style="fill:none;stroke:black;stroke-width:1.00010002"
         id="g3033">
        <path
           d="M 385.272,626.194 C 384.264,624.178 383.04,620.506 383.616,619.138"
           id="path3035" />
      </g>
      <g
         style="fill:none;stroke:black;stroke-width:1.00010002"
         id="g3037">
        <path
           d="M 378.288,624.826 C 376.776,622.45 375.552,618.058 376.272,616.258"
           id="path3039" />
      </g>
      <g
         style="fill:none;stroke:black;stroke-width:1.00010002"
         id="g3041">
        <path
           d="M 372.24,624.25 C 370.656,622.234 370.008,617.986 370.944,616.042"
           id="path3043" />
      </g>
      <g
         style="fill:none;stroke:black;stroke-width:1.00010002"
         id="g3045">
        <path
           d="M 365.328,621.874 C 363.96,619.642 363.6,615.466 364.464,613.81"
           id="path3047" />
      </g>
      <g
         style="fill:none;stroke:black;stroke-width:1.00010002"
         id="g3049">
        <path
           d="M 359.784,620.362 C 358.272,618.634 357.408,615.322 357.408,613.594"
           id="path3051" />
      </g>
      <g
         style="fill:none;stroke:black;stroke-width:1.00010002"
         id="g3053">
        <path
           d="M 354.168,617.626 C 352.656,616.474 352.296,613.666 352.08,611.866"
           id="path3055" />
      </g>
      <g
         style="fill:none;stroke:black;stroke-width:1.00010002"
         id="g3057">
        <path
           d="M 349.056,614.17 C 347.544,612.802 347.832,610.426 347.256,607.978"
           id="path3059" />
      </g>
      <g
         style="fill:black;stroke:black;stroke-width:0.21600001"
         id="g3061">
        <path
           d="M 313.272,604.09 C 314.352,604.09 315.216,603.01 315.216,601.57 C 315.216,600.202 314.352,599.122 313.272,599.122 C 312.264,599.122 311.328,600.202 311.328,601.57 C 311.328,603.01 312.264,604.09 313.272,604.09 z "
           id="path3063" />
      </g>
      <g
         style="fill:black"
         id="g3065">
        <path
           d="M 81.648,621.442 C 82.296,621.298 82.944,621.154 83.664,620.938 C 93.24,621.082 93.6,629.65 92.736,640.306 C 92.088,651.97 90.792,665.866 93.672,671.626 C 96.048,675.586 97.128,679.906 97.272,684.514 L 97.272,687.394 C 97.056,693.226 95.544,699.49 93.456,705.97 C 91.08,694.09 84.96,685.018 81.648,678.682 L 81.648,652.546 C 81.936,650.89 82.152,649.306 82.368,647.866 C 84.024,642.394 83.448,640.45 81.648,639.874 L 81.648,636.49 C 83.304,636.562 84.528,636.994 85.032,637.93 C 86.544,641.602 85.32,652.114 83.376,660.97 C 81.504,669.826 83.664,676.234 87.336,682.354 C 88.704,684.298 89.712,687.538 91.008,689.554 C 95.256,697.69 95.616,689.986 93.024,681.058 C 89.064,669.682 88.128,662.914 88.344,657.874 C 87.768,650.53 95.616,622.378 81.648,623.962 L 81.648,621.442 z "
           id="path3067" />
      </g>
      <g
         style="fill:black"
         id="g3069">
        <path
           d="M 67.248,621.298 C 68.112,618.418 72.864,623.242 81.648,621.442 L 81.648,623.962 C 81.432,623.962 81.216,624.034 81,624.034 C 76.968,626.698 71.352,623.386 69.984,624.682 C 67.176,627.346 69.192,636.13 71.496,636.562 C 74.448,636.85 78.624,636.274 81.648,636.49 L 81.648,639.874 C 80.568,639.586 79.056,639.73 77.328,639.946 C 74.664,640.018 73.584,639.946 70.92,640.018 C 67.32,639.802 65.304,632.242 66.168,629.29 C 66.168,624.394 65.664,626.194 67.248,621.298 L 67.248,621.298 z "
           id="path3071" />
      </g>
      <g
         style="fill:black"
         id="g3073">
        <path
           d="M 81.648,678.682 C 80.28,676.162 79.416,674.146 79.272,672.49 C 78.336,669.898 80.208,660.466 81.648,652.546 L 81.648,678.682 z "
           id="path3075" />
      </g>
      <g
         style="fill:black"
         id="g3077">
        <path
           d="M 294.336,786.178 C 294.696,786.106 295.056,786.034 295.488,785.962 C 302.04,785.17 308.16,782.722 316.08,785.818 C 319.248,787.834 320.688,790.57 320.832,793.882 L 320.832,795.034 C 320.616,800.218 317.592,806.626 313.128,813.754 C 304.128,828.37 302.256,827.938 303.624,820.81 C 311.256,802.018 308.016,797.122 297.936,801.37 C 296.856,801.73 295.632,802.018 294.336,802.234 L 294.336,798.13 C 297.936,797.554 301.248,796.906 304.992,796.33 C 315.648,793.81 307.656,814.474 309.672,813.898 C 314.784,803.818 321.84,792.082 311.328,788.338 C 304.488,787.69 298.8,788.41 294.336,789.13 L 294.336,786.178 z "
           id="path3079" />
      </g>
      <g
         style="fill:black"
         id="g3081">
        <path
           d="M 274.536,774.73 C 286.848,775.09 274.752,790.138 294.336,786.178 L 294.336,789.13 C 289.584,789.922 286.056,790.714 283.824,790.21 C 281.232,788.842 280.008,787.906 279,782.002 C 277.632,778.546 275.472,777.034 273.384,777.034 C 268.992,778.69 275.328,781.714 274.536,786.61 C 273.528,792.298 272.448,798.058 276.84,799.642 C 284.4,799.498 289.656,798.922 294.336,798.13 L 294.336,802.234 C 290.52,803.026 286.344,803.458 282.024,803.818 C 274.176,804.61 272.952,802.018 271.368,798.778 C 269.352,794.674 273.456,789.274 271.152,785.17 C 269.856,782.794 268.992,780.634 268.848,778.906 L 268.848,777.898 C 269.064,775.81 270.72,774.586 274.536,774.73 z "
           id="path3083" />
      </g>
      <g
         style="fill:black"
         id="g3085">
        <path
           d="M 421.272,385.282 C 424.512,385.21 427.176,385.282 430.2,385.93 C 431.064,386.722 431.424,387.73 431.568,388.954 L 431.568,390.394 C 431.352,393.85 429.624,399.034 427.752,406.954 C 422.568,415.666 421.992,411.706 421.272,406.378 L 421.272,396.514 C 421.848,397.378 422.064,398.818 423.216,403.282 C 423.288,409.618 425.232,407.458 426.168,402.922 C 426.384,396.73 431.856,391.834 428.328,388.954 C 427.824,388.306 425.16,387.442 421.272,387.586 L 421.272,385.282 z "
           id="path3087" />
      </g>
      <g
         style="fill:black"
         id="g3089">
        <path
           d="M 413.136,380.746 C 414.72,379.738 415.152,384.634 419.256,385.354 C 419.976,385.354 420.624,385.354 421.272,385.282 L 421.272,387.586 C 420.912,387.586 420.552,387.658 420.192,387.658 C 416.52,387.946 413.208,382.906 413.208,384.202 C 412.704,386.65 413.28,389.674 414.504,392.986 C 414.936,394.93 417.672,395.362 420.552,395.794 C 420.84,396.01 421.056,396.226 421.272,396.514 L 421.272,406.378 C 420.624,401.554 419.832,395.506 415.296,396.802 C 412.632,396.874 411.264,392.338 411.12,388.09 L 411.12,386.29 C 411.192,383.41 411.912,380.962 413.136,380.746 z "
           id="path3091" />
      </g>
      <g
         style="fill:black"
         id="g3093">
        <path
           d="M 507.888,619.714 C 511.704,619.642 515.376,619.786 518.76,620.506 C 519.696,621.37 520.128,622.954 520.2,625.042 L 520.2,627.49 C 519.912,633.61 517.752,642.826 515.448,652.402 C 514.872,655.714 514.296,659.026 513.648,662.338 C 511.272,672.85 510.264,668.17 509.472,661.402 C 509.832,651.826 511.056,641.89 507.888,636.778 L 507.888,632.458 C 508.104,632.458 508.32,632.53 508.536,632.53 C 509.904,633.61 511.416,639.082 512.28,646.498 C 512.784,654.202 513.576,652.546 514.512,646.642 C 514.8,639.298 520.056,627.85 515.952,624.394 C 515.304,623.674 512.568,622.306 507.888,622.522 L 507.888,619.714 z "
           id="path3095" />
      </g>
      <g
         style="fill:black"
         id="g3097">
        <path
           d="M 498.6,614.386 C 500.472,613.162 499.824,618.994 504.648,619.858 C 505.728,619.786 506.808,619.786 507.888,619.714 L 507.888,622.522 C 507.6,622.522 507.24,622.522 506.88,622.522 C 502.56,622.882 498.528,618.49 498.528,620.002 C 497.88,622.882 498.744,624.898 500.184,628.858 C 500.688,631.018 504.576,631.882 507.888,632.458 L 507.888,636.778 C 506.592,634.618 504.432,633.322 501.12,633.322 C 497.952,633.322 496.368,628.066 496.152,623.098 L 496.152,620.866 C 496.296,617.482 497.16,614.674 498.6,614.386 z "
           id="path3099" />
      </g>
      <g
         style="fill:black"
         id="g3101">
        <path
           d="M 153.288,396.442 C 160.128,395.146 167.184,393.49 172.296,394.426 C 175.68,395.146 176.76,400.906 176.904,409.978 L 176.904,413.146 C 176.904,414.946 176.832,416.89 176.76,418.906 C 175.968,428.842 173.808,429.058 170.856,417.898 C 169.488,408.754 166.968,404.362 153.288,407.242 L 153.288,403.786 C 156.816,403.21 160.632,402.85 164.952,403.066 C 169.92,403.93 167.904,406.018 174.168,415.522 C 176.328,416.89 175.032,401.194 171.216,398.242 C 171.072,396.586 160.128,398.242 153.288,399.106 L 153.288,396.442 z "
           id="path3103" />
      </g>
      <g
         style="fill:black"
         id="g3105">
        <path
           d="M 131.112,392.554 C 134.208,391.762 145.944,397.594 152.568,396.586 C 152.856,396.514 153.072,396.514 153.288,396.442 L 153.288,399.106 C 152.568,399.178 151.776,399.25 151.128,399.322 C 145.296,399.538 139.248,399.034 133.128,396.874 C 131.04,396.154 131.112,397.594 132.192,400.114 C 133.704,403.21 134.496,405.082 136.944,409.69 C 138.384,413.29 136.8,422.722 133.992,427.978 C 129.744,433.594 139.032,433.378 139.68,428.482 C 140.544,422.002 140.688,417.106 140.328,412.642 C 141.336,408.322 143.424,407.242 146.664,405.226 C 148.824,404.65 151.056,404.146 153.288,403.786 L 153.288,407.242 C 152.28,407.458 151.128,407.746 149.976,408.034 C 137.304,407.53 145.008,429.058 142.488,429.994 C 137.664,434.89 133.56,436.042 130.104,433.378 C 128.592,431.146 127.656,429.058 131.616,425.746 C 136.152,419.194 133.992,419.698 135,412.57 C 136.224,406.162 123.84,398.746 131.112,392.554 z "
           id="path3107" />
      </g>
      <g
         style="fill:none;stroke:black;stroke-width:1.00010002"
         id="g3109">
        <path
           d="M 288.792,715.258 C 285.552,724.906 291.312,728.506 289.008,736.642"
           id="path3111" />
      </g>
      <g
         style="fill:none;stroke:black;stroke-width:1.00010002"
         id="g3113">
        <path
           d="M 295.632,715.618 C 298.872,725.338 293.184,728.938 295.416,737.074"
           id="path3115" />
      </g>
      <g
         style="fill:none;stroke:black;stroke-width:1.00010002"
         id="g3117">
        <path
           d="M 292.104,723.178 C 290.232,728.722 293.976,734.626 292.104,739.81"
           id="path3119" />
      </g>
    </g>
  </g>
</svg>
